<?xml version="1.0" standalone="no"?>
<!DOCTYPE svg PUBLIC "-//W3C//DTD SVG 1.1//EN" "http://www.w3.org/Graphics/SVG/1.1/DTD/svg11.dtd">
<svg width="431" height="258.61146871262497" version="1.1" xmlns="http://www.w3.org/2000/svg">
  <title>20 by 10 sigma maze</title>
  <desc>20 by 10 sigma maze generated by The Maze Generator Website (http://www.mazegenerator.net/).</desc>
  <g fill="none" stroke="#000000" stroke-width="2" stroke-linecap="round" stroke-linejoin="round">
    <polyline points="9,38.373066958946431 2,26.248711305964292 9,14.124355652982152 23,14.124355652982152 30,26.248711305964292" />
    <polyline points="23,14.124355652982152 30,2.0000000000000107 44,2.0000000000000107 51,14.124355652982152 44,26.248711305964292" />
    <polyline points="51,14.124355652982152 65,14.124355652982152 72,26.248711305964292" />
    <polyline points="65,14.124355652982152 72,2.0000000000000107 86,2.0000000000000107 93,14.124355652982152 107,14.124355652982152 114,26.248711305964292" />
    <polyline points="107,14.124355652982152 114,2.0000000000000107 128,2.0000000000000107 135,14.124355652982152 128,26.248711305964292" />
    <polyline points="135,14.124355652982152 149,14.124355652982152 156,2.0000000000000107 170,2.0000000000000107 177,14.124355652982152 191,14.124355652982152 198,2.0000000000000107" />
    <polyline points="212,2.0000000000000107 219,14.124355652982152 233,14.124355652982152 240,26.248711305964292" />
    <polyline points="233,14.124355652982152 240,2.0000000000000107 254,2.0000000000000107 261,14.124355652982152 275,14.124355652982152 282,2.0000000000000107 296,2.0000000000000107 303,14.124355652982152 317,14.124355652982152 324,2.0000000000000107 338,2.0000000000000107 345,14.124355652982152 359,14.124355652982152 366,2.0000000000000107 380,2.0000000000000107 387,14.124355652982152 401,14.124355652982152 408,2.0000000000000107 422,2.0000000000000107 429,14.124355652982152 422,26.248711305964292" />
    <polyline points="9,62.621778264910709 2,50.49742261192857 9,38.373066958946431" />
    <line x1="23" y1="38.373066958946431" x2="30" y2="50.49742261192857" />
    <polyline points="44,50.49742261192857 51,38.373066958946431 65,38.373066958946431 72,50.49742261192857" />
    <polyline points="86,26.248711305964292 93,38.373066958946431 86,50.49742261192857" />
    <polyline points="114,50.49742261192857 107,38.373066958946431 114,26.248711305964292" />
    <line x1="128" y1="26.248711305964292" x2="135" y2="38.373066958946431" />
    <polyline points="149,38.373066958946431 156,26.248711305964292 170,26.248711305964292 177,38.373066958946431 191,38.373066958946431 198,50.49742261192857" />
    <polyline points="191,38.373066958946431 198,26.248711305964292 212,26.248711305964292" />
    <polyline points="212,50.49742261192857 219,38.373066958946431 233,38.373066958946431 240,26.248711305964292 254,26.248711305964292" />
    <line x1="254" y1="50.49742261192857" x2="261" y2="38.373066958946431" />
    <polyline points="275,38.373066958946431 282,26.248711305964292 296,26.248711305964292 303,38.373066958946431 317,38.373066958946431 324,50.49742261192857" />
    <polyline points="317,38.373066958946431 324,26.248711305964292 338,26.248711305964292 345,38.373066958946431 359,38.373066958946431 366,26.248711305964292" />
    <polyline points="380,26.248711305964292 387,38.373066958946431 380,50.49742261192857" />
    <polyline points="387,38.373066958946431 401,38.373066958946431 408,26.248711305964292 422,26.248711305964292 429,38.373066958946431 422,50.49742261192857" />
    <polyline points="9,86.870489570875 2,74.746133917892848 9,62.621778264910709 23,62.621778264910709 30,50.49742261192857 44,50.49742261192857" />
    <polyline points="44,74.746133917892848 51,62.621778264910709 65,62.621778264910709 72,74.746133917892848" />
    <polyline points="72,50.49742261192857 86,50.49742261192857 93,62.621778264910709 86,74.746133917892848" />
    <polyline points="114,74.746133917892848 107,62.621778264910709 114,50.49742261192857 128,50.49742261192857" />
    <polyline points="128,74.746133917892848 135,62.621778264910709 149,62.621778264910709 156,74.746133917892848" />
    <polyline points="149,62.621778264910709 156,50.49742261192857 170,50.49742261192857 177,62.621778264910709" />
    <polyline points="191,62.621778264910709 198,50.49742261192857 212,50.49742261192857 219,62.621778264910709" />
    <polyline points="240,74.746133917892848 233,62.621778264910709 240,50.49742261192857 254,50.49742261192857 261,62.621778264910709 254,74.746133917892848" />
    <polyline points="261,62.621778264910709 275,62.621778264910709 282,50.49742261192857 296,50.49742261192857" />
    <polyline points="296,74.746133917892848 303,62.621778264910709 317,62.621778264910709 324,50.49742261192857" />
    <polyline points="338,50.49742261192857 345,62.621778264910709 338,74.746133917892848" />
    <polyline points="345,62.621778264910709 359,62.621778264910709 366,74.746133917892848" />
    <polyline points="366,50.49742261192857 380,50.49742261192857 387,62.621778264910709 380,74.746133917892848" />
    <polyline points="408,74.746133917892848 401,62.621778264910709 408,50.49742261192857" />
    <polyline points="422,50.49742261192857 429,62.621778264910709 422,74.746133917892848" />
    <polyline points="9,111.11920087683929 2,98.994845223857141 9,86.870489570875 23,86.870489570875" />
    <polyline points="30,74.746133917892848 44,74.746133917892848 51,86.870489570875 44,98.994845223857141" />
    <line x1="65" y1="86.870489570875" x2="72" y2="74.746133917892848" />
    <polyline points="86,74.746133917892848 93,86.870489570875 86,98.994845223857141" />
    <line x1="107" y1="86.870489570875" x2="114" y2="74.746133917892848" />
    <polyline points="128,98.994845223857141 135,86.870489570875 149,86.870489570875 156,98.994845223857141" />
    <line x1="149" y1="86.870489570875" x2="156" y2="74.746133917892848" />
    <polyline points="170,74.746133917892848 177,86.870489570875 191,86.870489570875 198,74.746133917892848 212,74.746133917892848 219,86.870489570875 212,98.994845223857141" />
    <polyline points="219,86.870489570875 233,86.870489570875 240,74.746133917892848" />
    <polyline points="254,74.746133917892848 261,86.870489570875 254,98.994845223857141" />
    <polyline points="282,98.994845223857141 275,86.870489570875 282,74.746133917892848 296,74.746133917892848" />
    <polyline points="303,86.870489570875 317,86.870489570875 324,98.994845223857141" />
    <line x1="324" y1="74.746133917892848" x2="338" y2="74.746133917892848" />
    <line x1="338" y1="98.994845223857141" x2="345" y2="86.870489570875" />
    <polyline points="366,98.994845223857141 359,86.870489570875 366,74.746133917892848 380,74.746133917892848" />
    <polyline points="380,98.994845223857141 387,86.870489570875 401,86.870489570875 408,98.994845223857141" />
    <line x1="401" y1="86.870489570875" x2="408" y2="74.746133917892848" />
    <polyline points="422,74.746133917892848 429,86.870489570875 422,98.994845223857141" />
    <polyline points="9,135.36791218280357 2,123.24355652982142 9,111.11920087683927" />
    <polyline points="23,111.11920087683927 30,98.994845223857126 44,98.994845223857126 51,111.11920087683927 65,111.11920087683927 72,123.24355652982142" />
    <polyline points="72,98.994845223857126 86,98.994845223857126 93,111.11920087683927 86,123.24355652982142" />
    <polyline points="93,111.11920087683927 107,111.11920087683927 114,123.24355652982142" />
    <line x1="114" y1="98.994845223857126" x2="128" y2="98.994845223857126" />
    <line x1="128" y1="123.24355652982142" x2="135" y2="111.11920087683927" />
    <polyline points="149,111.11920087683927 156,98.994845223857126 170,98.994845223857126 177,111.11920087683927 191,111.11920087683927 198,123.24355652982142" />
    <polyline points="191,111.11920087683927 198,98.994845223857126 212,98.994845223857126" />
    <line x1="212" y1="123.24355652982142" x2="219" y2="111.11920087683927" />
    <polyline points="233,111.11920087683927 240,98.994845223857126 254,98.994845223857126" />
    <polyline points="254,123.24355652982142 261,111.11920087683927 275,111.11920087683927 282,98.994845223857126 296,98.994845223857126" />
    <polyline points="296,123.24355652982142 303,111.11920087683927 317,111.11920087683927 324,98.994845223857126 338,98.994845223857126 345,111.11920087683927" />
    <polyline points="366,123.24355652982142 359,111.11920087683927 366,98.994845223857126" />
    <line x1="380" y1="123.24355652982142" x2="387" y2="111.11920087683927" />
    <polyline points="408,123.24355652982142 401,111.11920087683927 408,98.994845223857126" />
    <polyline points="422,98.994845223857126 429,111.11920087683927 422,123.24355652982142" />
    <polyline points="9,159.61662348876783 2,147.4922678357857 9,135.36791218280357 23,135.36791218280357 30,123.24355652982142 44,123.24355652982142" />
    <polyline points="44,147.4922678357857 51,135.36791218280357 65,135.36791218280357 72,147.4922678357857" />
    <line x1="65" y1="135.36791218280357" x2="72" y2="123.24355652982142" />
    <line x1="86" y1="147.4922678357857" x2="93" y2="135.36791218280357" />
    <polyline points="114,147.4922678357857 107,135.36791218280357 114,123.24355652982142 128,123.24355652982142 135,135.36791218280357 149,135.36791218280357 156,147.4922678357857" />
    <polyline points="149,135.36791218280357 156,123.24355652982142 170,123.24355652982142" />
    <polyline points="170,147.4922678357857 177,135.36791218280357 191,135.36791218280357 198,147.4922678357857" />
    <line x1="191" y1="135.36791218280357" x2="198" y2="123.24355652982142" />
    <polyline points="212,123.24355652982142 219,135.36791218280357 212,147.4922678357857" />
    <polyline points="240,147.4922678357857 233,135.36791218280357 240,123.24355652982142 254,123.24355652982142" />
    <polyline points="261,135.36791218280357 275,135.36791218280357 282,147.4922678357857" />
    <polyline points="275,135.36791218280357 282,123.24355652982142 296,123.24355652982142 303,135.36791218280357 317,135.36791218280357" />
    <polyline points="324,123.24355652982142 338,123.24355652982142 345,135.36791218280357 338,147.4922678357857" />
    <polyline points="345,135.36791218280357 359,135.36791218280357 366,123.24355652982142 380,123.24355652982142" />
    <polyline points="380,147.4922678357857 387,135.36791218280357 401,135.36791218280357 408,147.4922678357857" />
    <line x1="401" y1="135.36791218280357" x2="408" y2="123.24355652982142" />
    <polyline points="422,123.24355652982142 429,135.36791218280357 422,147.4922678357857" />
    <polyline points="9,183.86533479473212 2,171.74097914175 9,159.61662348876786" />
    <polyline points="30,171.74097914175 23,159.61662348876786 30,147.49226783578573 44,147.49226783578573" />
    <polyline points="44,171.74097914175 51,159.61662348876786 65,159.61662348876786 72,171.74097914175" />
    <polyline points="86,147.49226783578573 93,159.61662348876786 86,171.74097914175" />
    <polyline points="93,159.61662348876786 107,159.61662348876786 114,171.74097914175" />
    <line x1="114" y1="147.49226783578573" x2="128" y2="147.49226783578573" />
    <line x1="128" y1="171.74097914175" x2="135" y2="159.61662348876786" />
    <polyline points="149,159.61662348876786 156,147.49226783578573 170,147.49226783578573" />
    <polyline points="170,171.74097914175 177,159.61662348876786 191,159.61662348876786 198,171.74097914175" />
    <polyline points="212,147.49226783578573 219,159.61662348876786 212,171.74097914175" />
    <polyline points="240,171.74097914175 233,159.61662348876786 240,147.49226783578573 254,147.49226783578573 261,159.61662348876786 275,159.61662348876786 282,171.74097914175" />
    <polyline points="282,147.49226783578573 296,147.49226783578573 303,159.61662348876786 296,171.74097914175" />
    <polyline points="303,159.61662348876786 317,159.61662348876786 324,171.74097914175" />
    <line x1="317" y1="159.61662348876786" x2="324" y2="147.49226783578573" />
    <polyline points="338,171.74097914175 345,159.61662348876786 359,159.61662348876786 366,147.49226783578573 380,147.49226783578573 387,159.61662348876786" />
    <polyline points="408,171.74097914175 401,159.61662348876786 408,147.49226783578573" />
    <polyline points="422,147.49226783578573 429,159.61662348876786 422,171.74097914175" />
    <polyline points="9,208.11404610069639 2,195.98969044771425 9,183.86533479473212 23,183.86533479473212 30,195.98969044771425" />
    <line x1="30" y1="171.74097914175" x2="44" y2="171.74097914175" />
    <line x1="44" y1="195.98969044771425" x2="51" y2="183.86533479473212" />
    <line x1="65" y1="183.86533479473212" x2="72" y2="195.98969044771425" />
    <polyline points="72,171.74097914175 86,171.74097914175 93,183.86533479473212" />
    <line x1="107" y1="183.86533479473212" x2="114" y2="195.98969044771425" />
    <polyline points="114,171.74097914175 128,171.74097914175 135,183.86533479473212 128,195.98969044771425" />
    <polyline points="135,183.86533479473212 149,183.86533479473212 156,171.74097914175 170,171.74097914175" />
    <line x1="170" y1="195.98969044771425" x2="177" y2="183.86533479473212" />
    <polyline points="198,195.98969044771425 191,183.86533479473212 198,171.74097914175 212,171.74097914175 219,183.86533479473212 233,183.86533479473212 240,195.98969044771425" />
    <line x1="233" y1="183.86533479473212" x2="240" y2="171.74097914175" />
    <polyline points="254,171.74097914175 261,183.86533479473212 254,195.98969044771425" />
    <polyline points="282,195.98969044771425 275,183.86533479473212 282,171.74097914175" />
    <line x1="296" y1="171.74097914175" x2="303" y2="183.86533479473212" />
    <line x1="317" y1="183.86533479473212" x2="324" y2="195.98969044771425" />
    <polyline points="324,171.74097914175 338,171.74097914175 345,183.86533479473212 338,195.98969044771425" />
    <polyline points="345,183.86533479473212 359,183.86533479473212 366,195.98969044771425" />
    <polyline points="366,171.74097914175 380,171.74097914175 387,183.86533479473212 401,183.86533479473212 408,171.74097914175" />
    <polyline points="422,171.74097914175 429,183.86533479473212 422,195.98969044771425" />
    <polyline points="9,232.36275740666068 2,220.23840175367855 9,208.11404610069641" />
    <line x1="23" y1="208.11404610069641" x2="30" y2="220.23840175367855" />
    <polyline points="30,195.98969044771428 44,195.98969044771428 51,208.11404610069641 44,220.23840175367855" />
    <polyline points="72,220.23840175367855 65,208.11404610069641 72,195.98969044771428 86,195.98969044771428 93,208.11404610069641 107,208.11404610069641 114,195.98969044771428" />
    <polyline points="128,195.98969044771428 135,208.11404610069641 128,220.23840175367855" />
    <polyline points="135,208.11404610069641 149,208.11404610069641 156,220.23840175367855" />
    <polyline points="149,208.11404610069641 156,195.98969044771428 170,195.98969044771428 177,208.11404610069641" />
    <polyline points="198,220.23840175367855 191,208.11404610069641 198,195.98969044771428" />
    <polyline points="212,195.98969044771428 219,208.11404610069641 233,208.11404610069641 240,220.23840175367855" />
    <polyline points="254,195.98969044771428 261,208.11404610069641 254,220.23840175367855" />
    <polyline points="261,208.11404610069641 275,208.11404610069641 282,220.23840175367855" />
    <polyline points="282,195.98969044771428 296,195.98969044771428 303,208.11404610069641 296,220.23840175367855" />
    <polyline points="303,208.11404610069641 317,208.11404610069641 324,220.23840175367855" />
    <line x1="317" y1="208.11404610069641" x2="324" y2="195.98969044771428" />
    <line x1="338" y1="220.23840175367855" x2="345" y2="208.11404610069641" />
    <polyline points="359,208.11404610069641 366,195.98969044771428 380,195.98969044771428 387,208.11404610069641 380,220.23840175367855" />
    <polyline points="401,208.11404610069641 408,195.98969044771428 422,195.98969044771428 429,208.11404610069641 422,220.23840175367855" />
    <polyline points="9,256.61146871262497 2,244.48711305964284 9,232.36275740666071" />
    <polyline points="23,232.36275740666071 30,220.23840175367857 44,220.23840175367857" />
    <line x1="44" y1="244.48711305964284" x2="51" y2="232.36275740666071" />
    <polyline points="72,244.48711305964284 65,232.36275740666071 72,220.23840175367857" />
    <polyline points="86,220.23840175367857 93,232.36275740666071 107,232.36275740666071 114,220.23840175367857 128,220.23840175367857" />
    <line x1="128" y1="244.48711305964284" x2="135" y2="232.36275740666071" />
    <line x1="149" y1="232.36275740666071" x2="156" y2="220.23840175367857" />
    <polyline points="170,220.23840175367857 177,232.36275740666071 191,232.36275740666071 198,244.48711305964284" />
    <polyline points="191,232.36275740666071 198,220.23840175367857 212,220.23840175367857" />
    <polyline points="219,232.36275740666071 233,232.36275740666071 240,244.48711305964284" />
    <polyline points="233,232.36275740666071 240,220.23840175367857 254,220.23840175367857" />
    <polyline points="261,232.36275740666071 275,232.36275740666071 282,220.23840175367857" />
    <polyline points="303,232.36275740666071 317,232.36275740666071 324,244.48711305964284" />
    <polyline points="324,220.23840175367857 338,220.23840175367857 345,232.36275740666071 359,232.36275740666071 366,220.23840175367857" />
    <polyline points="380,220.23840175367857 387,232.36275740666071 380,244.48711305964284" />
    <polyline points="387,232.36275740666071 401,232.36275740666071 408,220.23840175367857" />
    <polyline points="422,220.23840175367857 429,232.36275740666071 422,244.48711305964284" />
    <polyline points="30,244.48711305964284 23,256.61146871262497 9,256.61146871262497" />
    <line x1="44" y1="244.48711305964284" x2="30" y2="244.48711305964284" />
    <polyline points="72,244.48711305964284 65,256.61146871262497 51,256.61146871262497 44,244.48711305964284" />
    <line x1="86" y1="244.48711305964284" x2="72" y2="244.48711305964284" />
    <polyline points="114,244.48711305964284 107,256.61146871262497 93,256.61146871262497 86,244.48711305964284" />
    <line x1="128" y1="244.48711305964284" x2="114" y2="244.48711305964284" />
    <polyline points="156,244.48711305964284 149,256.61146871262497 135,256.61146871262497 128,244.48711305964284" />
    <line x1="170" y1="244.48711305964284" x2="156" y2="244.48711305964284" />
    <polyline points="198,244.48711305964284 191,256.61146871262497 177,256.61146871262497 170,244.48711305964284" />
    <line x1="212" y1="244.48711305964284" x2="198" y2="244.48711305964284" />
    <line x1="240" y1="244.48711305964284" x2="233" y2="256.61146871262497" />
    <line x1="219" y1="256.61146871262497" x2="212" y2="244.48711305964284" />
    <line x1="254" y1="244.48711305964284" x2="240" y2="244.48711305964284" />
    <polyline points="282,244.48711305964284 275,256.61146871262497 261,256.61146871262497 254,244.48711305964284" />
    <line x1="296" y1="244.48711305964284" x2="282" y2="244.48711305964284" />
    <polyline points="324,244.48711305964284 317,256.61146871262497 303,256.61146871262497 296,244.48711305964284" />
    <line x1="338" y1="244.48711305964284" x2="324" y2="244.48711305964284" />
    <polyline points="366,244.48711305964284 359,256.61146871262497 345,256.61146871262497 338,244.48711305964284" />
    <line x1="380" y1="244.48711305964284" x2="366" y2="244.48711305964284" />
    <polyline points="408,244.48711305964284 401,256.61146871262497 387,256.61146871262497 380,244.48711305964284" />
    <line x1="422" y1="244.48711305964284" x2="408" y2="244.48711305964284" />
  </g>
  <polyline fill="none" stroke="#ff0000" stroke-width="2" stroke-linecap="square" stroke-linejoin="round" points="205,2.0000000000000107 205,14.124355652982152 184,26.248711305964292 163,14.124355652982152 142,26.248711305964292 142,50.49742261192857 163,38.373066958946431 184,50.49742261192857 184,74.746133917892848 205,62.621778264910709 226,74.746133917892848 226,50.49742261192857 289,14.124355652982152 310,26.248711305964292 331,14.124355652982152 352,26.248711305964292 373,14.124355652982152 373,38.373066958946431 352,50.49742261192857 331,38.373066958946431 331,62.621778264910709 289,86.870489570875 310,98.994845223857141 247,135.36791218280357 289,159.61662348876786 289,183.86533479473212 310,195.98969044771425 310,171.74097914175 331,183.86533479473212 331,208.11404610069641 352,195.98969044771425 352,220.23840175367855 373,208.11404610069641 373,232.36275740666071 352,244.48711305964284 310,220.23840175367855 289,232.36275740666071 289,208.11404610069641 268,195.98969044771425 268,171.74097914175 247,159.61662348876786 247,208.11404610069641 205,183.86533479473212 205,208.11404610069641 226,220.23840175367855 205,232.36275740666071 226,244.48711305964284 226,256.61146871262497" />
</svg>
